<?xml version="1.0" encoding="UTF-8"?>
<svg width="20px" height="20px" viewBox="0 0 20 20" version="1.1" xmlns="http://www.w3.org/2000/svg" xmlns:xlink="http://www.w3.org/1999/xlink">
    <!-- Generator: Sketch 46.2 (44496) - http://www.bohemiancoding.com/sketch -->
    <title>instagram</title>
    <desc>Created with Sketch.</desc>
    <defs>
        <rect id="path-1" x="0" y="0" width="20" height="20"></rect>
        <rect id="path-3" x="0" y="0" width="20" height="20"></rect>
        <rect id="path-5" x="0" y="0" width="20" height="20"></rect>
    </defs>
    <g id="Page-1" stroke="none" stroke-width="1" fill="none" fill-rule="evenodd">
        <g id="1" transform="translate(-341.000000, -2219.000000)">
            <g id="Group-11" transform="translate(341.000000, 2219.000000)">
                <g id="instagram">
                    <g id="Clipped">
                        <mask id="mask-2" fill="white">
                            <use xlink:href="#path-1"></use>
                        </mask>
                        <g id="SVGID_1_"></g>
                        <path d="M10.000075,1.8017 C12.670175,1.8017 12.98635,1.8119 14.0409,1.86 C15.015825,1.904525 15.54535,2.06745 15.89775,2.20435 C16.364575,2.385775 16.69765,2.6025 17.047575,2.952425 C17.39755,3.30235 17.6143,3.63535 17.79565,4.102175 C17.932575,4.4546 18.095475,4.9841 18.139925,5.95905 C18.188025,7.013575 18.198225,7.329775 18.198225,9.99995 C18.198225,12.670125 18.188025,12.986375 18.139925,14.04085 C18.095475,15.01585 17.93255,15.545375 17.79565,15.8977 C17.6143,16.364425 17.39755,16.697525 17.047575,17.047525 C16.69765,17.397425 16.364575,17.614175 15.89775,17.7956 C15.545325,17.9325 15.015825,18.095425 14.0409,18.139875 C12.986525,18.18805 12.6704,18.19815 10.000075,18.19815 C7.3297,18.19815 7.013575,18.18805 5.959175,18.139875 C4.98425,18.095425 4.454725,17.932475 4.1023,17.7956 C3.635575,17.614175 3.3024,17.397425 2.952475,17.047525 C2.602575,16.697525 2.3859,16.364425 2.204475,15.8977 C2.067575,15.54535 1.904575,15.01585 1.860125,14.04085 C1.812025,12.986375 1.801825,12.670125 1.801825,9.99995 C1.801825,7.329775 1.812025,7.013575 1.860125,5.95905 C1.904575,4.9841 2.067575,4.4546 2.204475,4.102175 C2.3859,3.635375 2.602575,3.30235 2.952475,2.952425 C3.3024,2.6025 3.635575,2.385775 4.1023,2.20435 C4.454725,2.06745 4.98425,1.9045 5.959175,1.86 C7.013725,1.8119 7.3299,1.8017 10.000075,1.8017 M10.000075,-7.5e-05 C7.284175,-7.5e-05 6.943625,0.0114 5.877075,0.060125 C4.81265,0.108675 4.085725,0.277775 3.449675,0.52495 C2.792075,0.7805 2.2344,1.1224 1.6785,1.678325 C1.122575,2.23425 0.780575,2.792 0.5251,3.4495 C0.277775,4.085725 0.10875,4.81255 0.0602,5.877 C0.0115,6.94365 7.5e-05,7.284125 7.5e-05,9.999925 C7.5e-05,12.715825 0.0115,13.0563 0.0602,14.12285 C0.10875,15.18735 0.277775,15.9142 0.5251,16.55035 C0.780575,17.207925 1.122575,17.7656 1.6785,18.3216 C2.2344,18.877525 2.792075,19.21945 3.449675,19.475 C4.085725,19.722175 4.81265,19.891175 5.877075,19.939825 C6.94365,19.98845 7.2842,20.000025 10.000075,20.000025 C12.7159,20.000025 13.05645,19.98845 14.123,19.939825 C15.18745,19.8912 15.91435,19.722175 16.550425,19.475 C17.208025,19.21945 17.765675,18.87755 18.3217,18.3216 C18.8776,17.765625 19.219525,17.207925 19.475075,16.55035 C19.72235,15.914225 19.89135,15.18735 19.939925,14.12285 C19.9886,13.0563 20.000025,12.715825 20.000025,9.999925 C20.000025,7.2841 19.9886,6.943625 19.939925,5.877 C19.891375,4.812575 19.72235,4.085725 19.475075,3.449525 C19.219525,2.792025 18.877625,2.234275 18.3217,1.67835 C17.7657,1.122425 17.208025,0.7805 16.550425,0.524975 C15.914375,0.2778 15.18745,0.1087 14.123,0.06015 C13.05645,0.011425 12.7159,-7.5e-05 10.000075,-7.5e-05" id="Shape" fill="#000000" fill-rule="nonzero" mask="url(#mask-2)"></path>
                    </g>
                    <g id="Clipped">
                        <mask id="mask-4" fill="white">
                            <use xlink:href="#path-3"></use>
                        </mask>
                        <g id="SVGID_1_"></g>
                        <path d="M10.000075,4.86485 C7.164025,4.86485 4.864925,7.163875 4.864925,9.999925 C4.864925,12.835975 7.164025,15.135 10.000075,15.135 C12.83605,15.135 15.13515,12.835975 15.13515,9.999925 C15.13515,7.163875 12.83605,4.86485 10.000075,4.86485 M10.000075,13.333225 C8.1591,13.333225 6.6667,11.8409 6.6667,9.999925 C6.6667,8.15895 8.1591,6.6666 10.000075,6.6666 C11.84105,6.6666 13.333375,8.15895 13.333375,9.999925 C13.333375,11.8409 11.84105,13.333225 10.000075,13.333225" id="Shape" fill="#000000" fill-rule="nonzero" mask="url(#mask-4)"></path>
                    </g>
                    <g id="Clipped">
                        <mask id="mask-6" fill="white">
                            <use xlink:href="#path-5"></use>
                        </mask>
                        <g id="SVGID_1_"></g>
                        <path d="M16.538075,4.661975 C16.538075,5.32465 16.000875,5.861925 15.338025,5.861925 C14.675325,5.861925 14.138075,5.32465 14.138075,4.661975 C14.138075,3.999125 14.675325,3.461925 15.338025,3.461925 C16.000875,3.461925 16.538075,3.999125 16.538075,4.661975" id="Shape" fill="#000000" fill-rule="nonzero" mask="url(#mask-6)"></path>
                    </g>
                </g>
            </g>
        </g>
    </g>
</svg>