<?xml version="1.0" encoding="UTF-8"?>
<svg width="180px" height="309px" viewBox="0 0 180 309" version="1.1" xmlns="http://www.w3.org/2000/svg" xmlns:xlink="http://www.w3.org/1999/xlink">
    <!-- Generator: Sketch 46.2 (44496) - http://www.bohemiancoding.com/sketch -->
    <title>Group 38</title>
    <desc>Created with Sketch.</desc>
    <defs></defs>
    <g id="Page-1" stroke="none" stroke-width="1" fill="none" fill-rule="evenodd">
        <g id="1" transform="translate(-1100.000000, -1631.000000)">
            <g id="Group-38" transform="translate(1100.000000, 1631.000000)">
                <path d="M32.1000289,235.950092 C17.8670064,235.950092 -1.53265703,239.525024 2.88867188,241.349609 C7.31000078,243.174195 57.9086175,246.421882 55.8603953,248.803412 C53.812173,251.184942 34.4696589,253.485997 36.1728792,256.545581 C37.8760996,259.605165 84.4628664,261.948169 88.8503657,264.187301 C93.237865,266.426434 62.2831017,263.630607 62.351878,267.420118 C62.4206543,271.209629 93.5927455,272.628256 96.1040528,274.054343 C98.61536,275.48043 78.1556996,278.577033 78.8359706,281.163523 C79.5162416,283.750014 102.637603,281.196838 103.45466,283.758623 C104.271717,286.320408 95.4244645,287.346715 96.1040528,289.783773 C96.7836411,292.22083 114.935106,290.595556 115.375335,291.824985 C115.815564,293.054414 108.396397,294.439454 109.01582,297.689959 C109.2294,298.810748 119.222142,299.518282 120.348918,301.501034 C121.05012,302.734916 121.725592,305.242689 122.375335,309.024351 C122.99394,305.094347 123.504232,302.586574 123.906209,301.501034 C125.069084,298.360689 126.422329,298.534489 127.530774,297.689959 C129.988106,295.817706 122.293019,293.544748 122.62441,291.824985 C122.955801,290.105222 136.027945,291.550484 136.027945,288.864874 C136.027945,286.179264 119.248103,283.214968 121.201772,281.629054 C123.155442,280.043139 149.881267,277.70314 151.315088,276.001801 C152.748908,274.300462 133.904067,274.073098 133.904067,272.216992 C133.904067,270.360886 156.247729,268.715411 158.432242,267.537019 C160.616755,266.358628 136.704546,263.371402 140.718461,262.106675 C144.732375,260.841947 172.332649,259.74763 171.608027,259.398832 C166.982952,257.172544 141.598995,255.517285 143.256144,254.014042 C145.172923,252.275282 187.993483,254.662322 171.86722,250.099609 C155.740956,245.536896 108.837017,243.673415 83.4954988,241.349609 C58.1539801,239.025804 46.3330513,235.950092 32.1000289,235.950092 Z" id="Path-40" fill="#EFEDE8"></path>
                <g id="Group-37">
                    <path d="M166.632281,234.621617 C147.060969,236.435104 125.292773,236.180861 101.327695,233.858888 C76.6079454,231.463796 50.2182352,227.062294 22.1585641,220.654385 C18.2498101,219.16589 18.6124465,218.521297 23.2464733,218.720605 C25.9325778,218.836134 32.746147,219.117841 43.6871809,219.565726 L43.6871809,219.391402 L5.45454545,216.652174 C15.525853,230.010869 23.0825633,237.227446 28.1246764,238.301906 C31.2929583,238.977058 59.2680658,239.089614 83.717709,243.856558 C96.486662,246.346118 121.24535,248.060599 157.993772,249 C164.637824,246.850583 169.419374,244.600663 172.338421,242.25024 C175.257468,239.899818 177.811328,236.81989 180,233.010457 C179.894608,233.026259 179.789145,233.041994 179.683612,233.057663 L180,232.724674 L126.205363,225.556978 L126.205363,225.856003 C155.37984,230.422659 170.180847,232.78556 170.608384,232.944708 C171.027891,233.100867 171.316816,233.696867 170.349512,233.925536 C169.592584,234.104473 168.353507,234.3365 166.632281,234.621617 Z" id="Combined-Shape" fill="#134DB6"></path>
                    <path d="M80.2886933,217.874518 L80.05039,217.836069 L65.6003334,217.252381 C62.0504749,217.094048 57.1313514,216.893979 50.8429628,216.652174 L43.6363636,218.2617 L44.4896596,218.2617 C51.3840818,219.891954 59.7557955,221.07526 69.6048007,221.81162 C79.4538059,222.54798 94.8104707,223.138724 115.674795,223.583851 L115.557778,223.564971 C115.58938,223.566766 115.621069,223.568561 115.652844,223.570354 L126.233766,220.753522 L126.233766,220.640545 C113.166254,219.754811 97.2248623,218.740384 83.5440236,218.030925 C82.3356632,217.968262 81.2694035,217.917718 80.2886933,217.874518 Z" id="Path-26" fill="#134DB6"></path>
                    <path d="M74.6618452,1 L66.2337662,219.190132 C66.9706686,219.463805 67.7232604,219.634057 68.4915415,219.700888 C69.2598227,219.76772 70.1573963,219.72997 71.1842623,219.58764 L75.2894892,1 C75.1898044,0.92439273 75.0825399,0.886589096 74.9676959,0.886589096 C74.8528518,0.886589096 74.7509016,0.92439273 74.6618452,1 Z" id="Path-35" fill="#134DB6"></path>
                    <path d="M74.6666458,1.00312254 C49.8239469,38.054529 31.9366623,73.1384389 21.0047921,106.254852 C10.0729219,139.371265 3.07132456,171.584047 7.27595761e-12,202.893197 C8.63457274,205.904358 17.9108331,207.409938 27.8287811,207.409938 C37.7467291,207.409938 49.6641578,206.310423 63.5810674,204.111393 C52.7266795,176.426862 47.9694565,151.403672 49.3093983,129.041824 C50.6493402,106.679976 59.101756,64.0004085 74.6666458,1.00312254 Z" id="Path-36" fill="#EFEDE8"></path>
                    <path d="M75.2726913,2.25111428 C93.3691649,59.5925712 106.83078,101.493633 115.657536,127.954298 C124.484292,154.414964 135.875503,181.670364 149.831169,209.720497 C131.999379,209.349041 118.627423,208.910289 109.715299,208.404239 C100.803176,207.89819 88.0586759,206.879512 71.4817993,205.348205 L75.2726913,2.25111428 Z" id="Path-37" fill="#EFEDE8"></path>
                </g>
            </g>
        </g>
    </g>
</svg>