<?xml version="1.0" encoding="UTF-8"?>
<svg width="266px" height="75px" viewBox="0 0 266 75" version="1.1" xmlns="http://www.w3.org/2000/svg" xmlns:xlink="http://www.w3.org/1999/xlink">
    <!-- Generator: Sketch 46.2 (44496) - http://www.bohemiancoding.com/sketch -->
    <title>Group 3</title>
    <desc>Created with Sketch.</desc>
    <defs></defs>
    <g id="Page-1" stroke="none" stroke-width="1" fill="none" fill-rule="evenodd">
        <g id="1" transform="translate(-941.000000, -585.000000)" fill="#F8F7F4">
            <g id="Group-3" transform="translate(941.000000, 585.000000)">
                <path d="M154,8.39936192 C162.358386,1.00869033 171.796898,-1.50464411 182.315536,0.859358592 C192.834175,3.2233613 200.053846,9.4805254 203.974551,19.6308509 C217.561499,7.42675358 230.801543,3.02602034 243.694682,6.42865121 C256.58782,9.83128207 264.022926,19.6883983 266,36 C258.110761,24.3739943 249.93906,17.7893376 241.484897,16.2460299 C233.030735,14.7027222 220.527286,17.5131294 203.974551,24.6772516 C193.037662,15.5114442 184.980951,10.085481 179.804418,8.39936192 C174.627884,6.71324289 166.026412,6.71324289 154,8.39936192 Z" id="Path-19"></path>
                <path d="M0,36.2557064 C18.4874426,23.5147152 33.6354489,17.8293403 45.4440188,19.1995815 C57.2525887,20.5698228 69.4458259,29.0053724 82.0237303,44.5062304 C98.9754732,29.1677049 117.373519,24.8241938 137.217866,31.4756972 C157.062214,38.1272006 168.989592,52.6353015 173,75 C156.308844,57.6640162 142.54398,47.4994263 131.705407,44.5062304 C120.866835,41.5130345 104.306276,43.3029113 82.0237303,49.8758607 C66.3779148,39.8551142 54.1846776,33.9731989 45.4440188,32.2301148 C36.70336,30.4870308 21.5553537,31.8288946 0,36.2557064 Z" id="Path-22"></path>
            </g>
        </g>
    </g>
</svg>