<?xml version="1.0" encoding="UTF-8"?>
<svg width="2455px" height="473px" viewBox="0 0 2455 473" version="1.1" xmlns="http://www.w3.org/2000/svg" xmlns:xlink="http://www.w3.org/1999/xlink">
    <!-- Generator: Sketch 46.2 (44496) - http://www.bohemiancoding.com/sketch -->
    <title>Group</title>
    <desc>Created with Sketch.</desc>
    <defs>
        <linearGradient x1="0%" y1="49.9365598%" x2="97.7219076%" y2="50%" id="linearGradient-1">
            <stop stop-color="#FFFFFF" offset="0%"></stop>
            <stop stop-color="#F8F7F4" offset="10.7880725%"></stop>
            <stop stop-color="#F8F7F4" offset="90.8242985%"></stop>
            <stop stop-color="#FFFFFF" offset="100%"></stop>
        </linearGradient>
    </defs>
    <g id="Page-1" stroke="none" stroke-width="1" fill="none" fill-rule="evenodd">
        <g id="Desktop-HD">
            <g id="Group">
                <path d="M1228,207 C1228,92.6770568 1135.32294,0 1021,0 C906.677057,0 814,92.6770568 814,207 L1228,207 Z" id="Oval-9" fill="#F16549"></path>
                <path d="M0.773457142,268.185879 L0.761726386,268.185879 L0.761726386,340.709711 C508.731651,337.096763 762.713427,337.096763 762.707054,340.709711 C762.697495,346.129133 735.842468,347.913388 735.842468,354.591313 C735.842468,361.269239 839.449472,353.741578 851.180857,362.843128 C862.912243,371.944678 729.131587,377.283628 789.100809,389.325719 C849.07003,401.367809 1020.84089,386.852255 1020.84089,396.911629 C1020.84089,406.971003 878.140341,406.161089 878.336408,413.520279 C878.532476,420.879469 964.676978,411.800074 956.434588,421.834818 C948.192197,431.869562 791.039687,438.047899 851.180857,446.580957 C911.322028,455.114014 1130.82543,434.438085 1130.84591,446.580957 C1130.86638,458.723828 956.434588,454.345502 956.434588,464.728585 C956.434588,475.111668 1065.229,472.297127 1119.92565,472.297127 C1174.6223,472.297127 1251.20954,467.42604 1251.20954,454.663244 C1251.20954,441.900448 1176.322,446.580957 1176.322,431.283782 C1176.322,415.986607 1280.91319,424.44319 1280.91319,411.546319 C1280.91319,398.649448 1127.851,404.236624 1107.40285,399.04527 C1086.95469,393.853916 1103.82907,389.325719 1176.322,389.325719 C1248.81493,389.325719 1296.27631,389.087656 1296.27631,378.878945 C1296.27631,368.670235 1232.35298,371.639741 1218.28594,371.639741 C1204.2189,371.639741 1176.322,373.226904 1176.322,362.843128 C1176.322,352.459352 1304.43553,367.369702 1304.28159,354.591313 C1304.19905,347.739929 1278.76316,347.889681 1278.76316,343.879415 C1278.76316,341.205904 1285.7215,340.149336 1299.63817,340.709711 L2454.18737,343.879415 L2454.18737,336 L2454.76396,336 C2454.57133,335.627534 2454.37913,335.25695 2454.18737,334.888247 L2454.18737,268.185879 L2385.83817,268.185879 C2292.09424,222.420513 2274.70143,191.728024 2254.83835,194.840128 C2230.33073,198.679928 2218.58351,215.663519 2192.62626,222.935819 C2144.34246,236.463228 2098.44275,239.275538 2092.49444,236 C2052.3374,213.88684 1972.03616,194.840128 1972,194.840128 C1950.34204,177.063803 1866.42225,246.350151 1847.60862,238.101808 C1807.41379,220.479441 1725.22196,230.800639 1675.40432,168.77334 C1652.82901,140.66512 1614.83079,210.640574 1593.39242,194.840128 C1576.46429,182.363807 1441.89878,200.192689 1423.97487,191.428345 C1375.79957,167.871836 1330.3531,157.281267 1321.63909,157.281267 C1309.68298,157.281267 1293.76537,200.123043 1254.05317,206.152335 C1214.34096,212.181627 1226.44324,191.008019 1191.34052,177.063803 C1156.23779,163.119588 1102.7779,140.948221 1086.33128,139.526448 C1069.88467,138.104675 1041.19161,189.76422 981.358971,194.840128 C921.52633,199.916036 907.422126,178.506464 877.045042,157.281267 C846.667958,136.05607 816.129104,69.834407 802.690679,70.0003112 C789.252254,70.1662153 769.008579,103.250835 698.278301,130.364851 C664.629431,143.263938 485.859658,193.838138 319.239171,201.91083 C304.624425,202.618908 273.365134,153.817272 259.127635,153.649207 C252.771243,153.574174 201.342383,177.063803 171.632384,201.91083 C160.716528,211.039965 103.763552,222.403021 0.773457142,236 L0.773457142,268.185879 Z" id="Combined-Shape" fill="url(#linearGradient-1)"></path>
            </g>
        </g>
    </g>
</svg>